<?xml version="1.0" encoding="iso-8859-1"?>
<!-- Generator: Adobe Illustrator 26.5.0, SVG Export Plug-In . SVG Version: 6.00 Build 0)  -->
<svg version="1.1" baseProfile="basic" id="&#x421;&#x43B;&#x43E;&#x439;_1"
	 xmlns="http://www.w3.org/2000/svg" xmlns:xlink="http://www.w3.org/1999/xlink" x="0px" y="0px" viewBox="0 0 64 64"
	 xml:space="preserve">
<path style="fill:none;stroke:#9C34C2;stroke-width:4;stroke-linecap:round;stroke-linejoin:round;stroke-miterlimit:10;" d="M23,17
	v-6c0-1.105,0.895-2,2-2h14c1.105,0,2,0.895,2,2v6"/>
<ellipse style="opacity:0.3;" cx="32.023" cy="61" rx="23" ry="3"/>
<path style="fill:#FFCE29;" d="M50,51.005H14c-3.314,0-6-2.686-6-6v-25c0-3.314,2.686-6,6-6h36c3.314,0,6,2.686,6,6v25
	C56,48.319,53.314,51.005,50,51.005z"/>
<path style="fill:#9C34C2;" d="M56,25H8v-5.194C8,16.6,10.6,14,13.806,14h36.388C53.4,14,56,16.6,56,19.806V25z"/>
<g>
	<path style="opacity:0.3;fill:#FFFFFF;" d="M22.998,19.005c2.761,0,5-2.238,5-5c0,0,0,0,0,0H14c-3.314,0-6,2.686-6,6V37
		c0,0,0,0,0,0c2.761,0,5-2.238,5-5V20.005c0-0.552,0.449-1,1-1H22.998z"/>
	<path style="opacity:0.15;" d="M56,45.005V28c-2.761,0-5,2.238-5,5v11.058c0,1.075-0.872,1.947-1.947,1.947H34.998
		c-2.761,0-5,2.239-5,5v0H50C53.313,51.005,56,48.319,56,45.005z"/>
</g>
<path style="fill:none;stroke:#FFFFFF;stroke-width:3;stroke-linecap:round;stroke-linejoin:round;stroke-miterlimit:10;" d="
	M11.5,23.5v-3.495c0-1.379,1.122-2.5,2.5-2.5"/>
<path style="fill:#9C34C2;" d="M23,30h-4c-1.105,0-2-0.895-2-2v-5h8v5C25,29.105,24.105,30,23,30z"/>
<path style="fill:#9C34C2;" d="M45,30h-4c-1.105,0-2-0.895-2-2v-5h8v5C47,29.105,46.105,30,45,30z"/>
</svg>